<?xml version="1.0" encoding="UTF-8"?>
<svg width="736px" height="231px" viewBox="0 0 736 231" version="1.1" xmlns="http://www.w3.org/2000/svg" xmlns:xlink="http://www.w3.org/1999/xlink">
    <!-- Generator: Sketch 61.2 (89653) - https://sketch.com -->
    <title>Group 49</title>
    <desc>Created with Sketch.</desc>
    <defs>
        <polygon id="path-1" points="0.4101 0.1489 22.814 0.1489 22.814 41.8729 0.4101 41.8729"></polygon>
        <polygon id="path-3" points="0.318321233 0.326 67.3960788 0.326 67.3960788 230.9998 0.318321233 230.9998"></polygon>
    </defs>
    <g id="Page-1" stroke="none" stroke-width="1" fill="none" fill-rule="evenodd">
        <g id="Group-49" transform="translate(0.000000, -1.000000)">
            <path d="M301.3271,103.4053 L301.3271,100.7613 C305.4391,100.7613 307.4941,99.4823 307.4941,96.9233 L307.4941,84.2113 C307.0751,84.0013 306.4981,83.8233 305.7641,83.6763 C305.0301,83.5293 304.1591,83.4553 303.1521,83.4553 L295.6001,83.4553 C294.0481,83.4553 292.6841,83.7073 291.5101,84.2113 L291.5101,96.9233 C291.5101,99.4823 293.3981,100.7613 297.1731,100.7613 L297.1731,103.4053 L274.8321,103.4053 L274.8321,100.7613 C279.0701,100.7613 281.1891,99.4823 281.1891,96.9233 L281.1891,69.4213 C281.1891,66.1073 279.0701,64.4503 274.8321,64.4503 L274.8321,61.6803 L297.1731,61.6803 L297.1731,64.4503 C293.3981,64.4503 291.5101,66.1073 291.5101,69.4213 L291.5101,79.6783 C292.1391,79.8883 292.7681,80.0363 293.3981,80.1203 C294.0271,80.2043 294.7611,80.2463 295.6001,80.2463 L303.1521,80.2463 C305.3341,80.2463 306.7811,80.0783 307.4941,79.7423 L307.4941,69.4213 C307.4941,66.1073 305.4391,64.4503 301.3271,64.4503 L301.3271,61.6803 L323.5421,61.6803 L323.5421,64.4503 C319.7241,64.4503 317.8151,66.1073 317.8151,69.4213 L317.8151,96.9233 C317.8151,99.4823 319.7241,100.7613 323.5421,100.7613 L323.5421,103.4053 L301.3271,103.4053 Z" id="Fill-1" fill="#000000"></path>
            <path d="M373.1328,82.3233 C373.1328,85.8883 372.5668,89.0353 371.4338,91.7623 C370.3008,94.4903 368.7378,96.7873 366.7458,98.6543 C364.7528,100.5203 362.4028,101.9363 359.6968,102.9023 C356.9908,103.8673 354.0438,104.3483 350.8548,104.3483 C347.8338,104.3483 345.0018,103.9403 342.3588,103.1223 C339.7158,102.3033 337.4078,101.0243 335.4368,99.2833 C333.4648,97.5423 331.9118,95.3073 330.7788,92.5813 C329.6468,89.8533 329.0798,86.6013 329.0798,82.8263 C329.0798,79.0083 329.6258,75.7243 330.7168,72.9763 C331.8068,70.2283 333.3278,67.9633 335.2788,66.1793 C337.2298,64.3963 339.5378,63.0863 342.2018,62.2473 C344.8658,61.4083 347.7498,60.9883 350.8548,60.9883 C353.9178,60.9883 356.8018,61.4393 359.5078,62.3413 C362.2138,63.2443 364.5738,64.5863 366.5878,66.3693 C368.6018,68.1523 370.1958,70.3763 371.3708,73.0403 C372.5458,75.7043 373.1328,78.7983 373.1328,82.3233 M351.3578,101.2023 C353.5818,101.2023 355.4068,100.7293 356.8338,99.7863 C358.2598,98.8423 359.3818,97.5423 360.2008,95.8853 C361.0188,94.2263 361.5848,92.2763 361.8998,90.0323 C362.2138,87.7873 362.3718,85.3853 362.3718,82.8263 C362.3718,80.4343 362.2138,78.1063 361.8998,75.8413 C361.5848,73.5753 360.9978,71.5603 360.1378,69.7993 C359.2778,68.0373 358.0708,66.6213 356.5188,65.5513 C354.9668,64.4813 352.9318,63.9463 350.4138,63.9463 C348.1068,63.9463 346.2608,64.4503 344.8758,65.4573 C343.4918,66.4643 342.4328,67.8173 341.6978,69.5153 C340.9638,71.2153 340.4818,73.1663 340.2508,75.3693 C340.0198,77.5713 339.9048,79.8883 339.9048,82.3233 C339.9048,84.9663 340.0728,87.4413 340.4078,89.7493 C340.7438,92.0553 341.3418,94.0593 342.2018,95.7593 C343.0618,97.4583 344.2258,98.7903 345.6948,99.7553 C347.1628,100.7193 349.0508,101.2023 351.3578,101.2023" id="Fill-3" fill="#000000"></path>
            <path d="M402.8999,75.2745 C402.5649,73.5955 402.1449,72.0655 401.6419,70.6795 C401.1379,69.2955 400.5189,68.0995 399.7849,67.0925 C399.0509,66.0865 398.2119,65.3095 397.2679,64.7635 C396.3239,64.2185 395.2639,63.9465 394.0899,63.9465 C391.6559,63.9465 389.7679,64.4395 388.4259,65.4245 C387.0829,66.4115 386.4119,67.7015 386.4119,69.2955 C386.4119,70.4275 386.6429,71.3505 387.1039,72.0655 C387.5659,72.7785 388.2369,73.4185 389.1179,73.9845 C389.9989,74.5495 391.0789,75.0755 392.3589,75.5565 C393.6389,76.0405 395.0759,76.5955 396.6699,77.2245 C398.4739,77.9375 400.1309,78.6525 401.6419,79.3655 C403.1519,80.0785 404.4419,80.9375 405.5119,81.9455 C406.5819,82.9525 407.4099,84.1695 407.9979,85.5945 C408.5849,87.0215 408.8789,88.8265 408.8789,91.0065 C408.8789,93.1055 408.5329,94.9715 407.8409,96.6085 C407.1479,98.2455 406.1619,99.6395 404.8829,100.7935 C403.6029,101.9475 402.0719,102.8285 400.2889,103.4365 C398.5059,104.0455 396.5439,104.3485 394.4039,104.3485 C392.8519,104.3485 391.3519,104.1605 389.9049,103.7835 C388.4569,103.4055 387.1879,102.7345 386.0969,101.7685 C385.2579,102.3555 384.3879,102.8805 383.4859,103.3415 C382.5839,103.8035 381.6499,104.1805 380.6849,104.4745 C380.1819,103.0055 379.8249,101.5285 379.6149,100.0385 C379.4049,98.5485 379.3009,97.0065 379.3009,95.4135 C379.3009,94.3225 379.3319,93.2525 379.3949,92.2035 C379.4579,91.1545 379.5729,90.0845 379.7409,88.9935 L383.8319,88.9935 C383.8319,90.3785 384.0099,91.7835 384.3669,93.2105 C384.7229,94.6355 385.2999,95.9485 386.0969,97.1425 C386.8939,98.3385 387.9329,99.3145 389.2119,100.0705 C390.4919,100.8255 392.0339,101.2025 393.8379,101.2025 C395.4739,101.2025 396.8479,101.0245 397.9599,100.6675 C399.0719,100.3105 399.9739,99.8185 400.6659,99.1885 C401.3579,98.5585 401.8619,97.8365 402.1769,97.0165 C402.4909,96.1995 402.6489,95.3295 402.6489,94.4065 C402.6489,92.9365 402.2709,91.7105 401.5159,90.7235 C400.7609,89.7385 399.5229,88.9525 397.8029,88.3645 C395.2439,87.4835 392.8939,86.6135 390.7539,85.7525 C388.6149,84.8915 386.7579,83.8645 385.1849,82.6695 C383.6109,81.4725 382.3839,80.0565 381.5029,78.4205 C380.6219,76.7855 380.1819,74.7705 380.1819,72.3785 C380.1819,70.5755 380.5279,68.9495 381.2199,67.5025 C381.9119,66.0545 382.8459,64.8275 384.0209,63.8205 C385.1949,62.8125 386.5689,62.0475 388.1429,61.5235 C389.7159,60.9995 391.3839,60.7375 393.1459,60.7375 C394.6979,60.7375 396.1879,61.0195 397.6139,61.5865 C399.0399,62.1535 400.2359,63.1075 401.2009,64.4505 C401.6629,63.6115 402.3339,62.9185 403.2149,62.3735 C404.0959,61.8285 404.9769,61.4285 405.8579,61.1765 C406.4869,63.2335 406.8759,65.5305 407.0219,68.0685 C407.1689,70.6075 407.2429,73.0085 407.2429,75.2745 L402.8999,75.2745 Z" id="Fill-5" fill="#000000"></path>
            <path d="M441.0996,103.4053 L441.0996,100.7613 C445.2116,100.7613 447.2676,99.4823 447.2676,96.9233 L447.2676,84.2113 C446.8476,84.0013 446.2716,83.8233 445.5366,83.6763 C444.8026,83.5293 443.9316,83.4553 442.9246,83.4553 L435.3736,83.4553 C433.8216,83.4553 432.4576,83.7073 431.2836,84.2113 L431.2836,96.9233 C431.2836,99.4823 433.1706,100.7613 436.9476,100.7613 L436.9476,103.4053 L414.6056,103.4053 L414.6056,100.7613 C418.8426,100.7613 420.9616,99.4823 420.9616,96.9233 L420.9616,69.4213 C420.9616,66.1073 418.8426,64.4503 414.6056,64.4503 L414.6056,61.6803 L436.9476,61.6803 L436.9476,64.4503 C433.1706,64.4503 431.2836,66.1073 431.2836,69.4213 L431.2836,79.6783 C431.9116,79.8883 432.5416,80.0363 433.1706,80.1203 C433.7996,80.2043 434.5346,80.2463 435.3736,80.2463 L442.9246,80.2463 C445.1076,80.2463 446.5546,80.0783 447.2676,79.7423 L447.2676,69.4213 C447.2676,66.1073 445.2116,64.4503 441.0996,64.4503 L441.0996,61.6803 L463.3166,61.6803 L463.3166,64.4503 C459.4976,64.4503 457.5886,66.1073 457.5886,69.4213 L457.5886,96.9233 C457.5886,99.4823 459.4976,100.7613 463.3166,100.7613 L463.3166,103.4053 L441.0996,103.4053 Z" id="Fill-7" fill="#000000"></path>
            <path d="M469.5459,103.4053 L469.5459,100.7613 C473.4479,100.7613 475.3999,99.4823 475.3999,96.9233 L475.3999,69.4213 C475.3999,66.1073 473.3639,64.4503 469.2939,64.4503 L469.2939,61.6803 L491.3839,61.6803 L491.3839,64.4503 C487.6499,64.4503 485.7829,66.1073 485.7829,69.4213 L485.7829,96.9233 C485.7829,99.4823 487.7549,100.7613 491.6979,100.7613 L491.6979,103.4053 L469.5459,103.4053 Z" id="Fill-9" fill="#000000"></path>
            <path d="M532.8564,103.4053 L532.8564,100.7613 C536.5054,100.7613 538.3314,99.3773 538.3314,96.6083 L537.8284,70.3013 L525.3674,103.4053 L519.7034,103.4053 L506.2364,70.4913 L505.9844,95.7263 C505.9844,99.0843 508.0404,100.7613 512.1514,100.7613 L512.1514,103.4053 L496.4814,103.4053 L496.4814,100.7613 C498.3694,100.7613 499.8174,100.3103 500.8244,99.4093 C501.8304,98.5073 502.3554,97.1123 502.3974,95.2233 L502.9004,67.7213 C502.9004,67.2183 502.8694,66.7673 502.8054,66.3693 C502.7434,65.9703 502.5114,65.6343 502.1144,65.3623 C501.7144,65.0903 501.0954,64.8693 500.2564,64.7013 C499.4184,64.5343 498.2434,64.4503 496.7334,64.4503 L496.7334,61.6803 L513.5984,61.6803 L525.7454,92.1393 L537.4504,61.6803 L552.3014,61.6803 L552.3014,64.4503 C551.0434,64.4503 550.0374,64.5443 549.2824,64.7333 C548.5264,64.9223 547.9284,65.1733 547.4884,65.4883 C547.0474,65.8023 546.7634,66.1493 546.6384,66.5273 C546.5124,66.9043 546.4504,67.3023 546.4504,67.7213 L547.2054,96.1683 C547.2894,99.2313 549.1564,100.7613 552.8054,100.7613 L552.8054,103.4053 L532.8564,103.4053 Z" id="Fill-11" fill="#000000"></path>
            <path d="M602.46,82.3233 C602.46,85.8883 601.894,89.0353 600.761,91.7623 C599.628,94.4903 598.065,96.7873 596.072,98.6543 C594.079,100.5203 591.731,101.9363 589.024,102.9023 C586.318,103.8673 583.37,104.3483 580.182,104.3483 C577.161,104.3483 574.329,103.9403 571.686,103.1223 C569.043,102.3033 566.735,101.0243 564.763,99.2833 C562.791,97.5423 561.239,95.3073 560.106,92.5813 C558.973,89.8533 558.407,86.6013 558.407,82.8263 C558.407,79.0083 558.952,75.7243 560.043,72.9763 C561.134,70.2283 562.655,67.9633 564.606,66.1793 C566.557,64.3963 568.864,63.0863 571.528,62.2473 C574.193,61.4083 577.077,60.9883 580.182,60.9883 C583.244,60.9883 586.129,61.4393 588.835,62.3413 C591.541,63.2443 593.901,64.5863 595.915,66.3693 C597.929,68.1523 599.523,70.3763 600.698,73.0403 C601.872,75.7043 602.46,78.7983 602.46,82.3233 M580.686,101.2023 C582.909,101.2023 584.734,100.7293 586.16,99.7863 C587.587,98.8423 588.709,97.5423 589.527,95.8853 C590.345,94.2263 590.912,92.2763 591.226,90.0323 C591.541,87.7873 591.698,85.3853 591.698,82.8263 C591.698,80.4343 591.541,78.1063 591.226,75.8413 C590.912,73.5753 590.324,71.5603 589.464,69.7993 C588.605,68.0373 587.398,66.6213 585.846,65.5513 C584.293,64.4813 582.258,63.9463 579.741,63.9463 C577.434,63.9463 575.588,64.4503 574.203,65.4573 C572.818,66.4643 571.759,67.8173 571.025,69.5153 C570.291,71.2153 569.808,73.1663 569.577,75.3693 C569.347,77.5713 569.231,79.8883 569.231,82.3233 C569.231,84.9663 569.399,87.4413 569.735,89.7493 C570.07,92.0553 570.668,94.0593 571.528,95.7593 C572.388,97.4583 573.553,98.7903 575.022,99.7553 C576.49,100.7193 578.378,101.2023 580.686,101.2023" id="Fill-13" fill="#000000"></path>
            <path d="M620.5215,103.9092 L606.3625,68.1632 C605.1875,65.6862 603.4045,64.4502 601.0115,64.4502 L601.0115,61.6802 L621.9065,61.6802 L621.9065,64.4502 L618.7585,64.4502 C617.5425,64.4502 616.9335,64.7012 616.9335,65.2052 C616.9335,66.0862 617.1015,66.9672 617.4385,67.8472 L627.4445,94.4062 L636.6315,69.1072 C636.7995,68.6022 636.8835,67.9112 636.8835,67.0302 C636.8835,65.3092 634.9965,64.4502 631.2195,64.4502 L631.2195,61.6802 L646.8275,61.6802 L646.8275,64.4502 L644.4995,64.4502 C643.9115,64.4502 643.3975,64.7012 642.9575,65.2052 C642.5155,65.7082 642.0655,66.4432 641.6045,67.4082 L626.6895,104.3482 L620.5215,103.9092 Z" id="Fill-15" fill="#000000"></path>
            <path d="M275.084,169.5469 L275.084,166.9039 C278.986,166.9039 280.937,165.6239 280.937,163.0649 L280.937,135.5639 C280.937,132.2489 278.902,130.5919 274.832,130.5919 L274.832,127.8229 L296.922,127.8229 L296.922,130.5919 C293.188,130.5919 291.321,132.2489 291.321,135.5639 L291.321,163.0649 C291.321,165.6239 293.293,166.9039 297.236,166.9039 L297.236,169.5469 L275.084,169.5469 Z" id="Fill-17" fill="#000000"></path>
            <path d="M325.4302,167.3448 C327.6542,167.3448 329.4792,166.8728 330.9052,165.9288 C332.3322,164.9858 333.4542,163.6838 334.2722,162.0278 C335.0902,160.3698 335.6572,158.4188 335.9712,156.1738 C336.2862,153.9288 336.4432,151.5288 336.4432,148.9678 C336.4432,146.5768 336.2862,144.2478 335.9712,141.9838 C335.6572,139.7168 335.0692,137.7028 334.2092,135.9418 C333.3492,134.1788 332.1432,132.7628 330.5912,131.6938 C329.0382,130.6228 327.0042,130.0878 324.4862,130.0878 C322.2212,130.0878 320.3962,130.5918 319.0112,131.5988 C317.6272,132.6068 316.5672,133.9588 315.8332,135.6578 C315.0992,137.3578 314.6162,139.3078 314.3862,141.5108 C314.1552,143.7128 314.0392,146.0318 314.0392,148.4648 C314.0392,151.1088 314.2072,153.5828 314.5432,155.8908 C314.8792,158.1988 315.4662,160.2018 316.3052,161.9018 C317.1442,163.5998 318.3082,164.9318 319.7982,165.8968 C321.2872,166.8628 323.1652,167.3448 325.4302,167.3448 L325.4302,167.3448 Z M347.3942,172.7568 C346.9322,174.3508 346.3342,175.6198 345.6002,176.5648 C344.8662,177.5078 344.0902,178.2328 343.2722,178.7358 C342.4542,179.2398 341.6352,179.5648 340.8172,179.7108 C339.9992,179.8588 339.2542,179.9308 338.5832,179.9308 C336.3602,179.9308 334.2412,179.2178 332.2272,177.7908 C330.2132,176.3658 328.3882,173.9108 326.7522,170.4278 C323.6052,170.4278 320.6052,170.0608 317.7522,169.3268 C314.8992,168.5928 312.4032,167.3868 310.2632,165.7078 C308.1242,164.0308 306.4142,161.8178 305.1342,159.0698 C303.8552,156.3218 303.2152,152.9538 303.2152,148.9678 C303.2152,145.1508 303.7602,141.8668 304.8512,139.1188 C305.9422,136.3708 307.4632,134.1068 309.4142,132.3238 C311.3652,130.5398 313.6722,129.2278 316.3362,128.3888 C319.0012,127.5498 321.8852,127.1308 324.9902,127.1308 C328.0102,127.1308 330.8742,127.5818 333.5802,128.4848 C336.2862,129.3858 338.6462,130.7278 340.6602,132.5108 C342.6742,134.2938 344.2682,136.5178 345.4432,139.1818 C346.6182,141.8458 347.2052,144.9418 347.2052,148.4648 C347.2052,153.7928 346.0092,158.1768 343.6182,161.6178 C341.2262,165.0578 338.0382,167.5118 334.0522,168.9818 C334.4302,169.8208 334.9122,170.6278 335.4992,171.4048 C336.0872,172.1798 336.7162,172.8508 337.3872,173.4178 C338.0592,173.9848 338.7402,174.4348 339.4332,174.7708 C340.1252,175.1058 340.7652,175.2748 341.3522,175.2748 C342.9462,175.2748 344.1422,174.4348 344.9392,172.7568 L347.3942,172.7568 Z" id="Fill-19" fill="#000000"></path>
            <path d="M357.8408,169.5469 L357.8408,166.9039 C362.2038,166.9039 364.3858,165.1419 364.3858,161.6179 L364.3858,133.1719 C364.3858,131.9139 363.5248,131.2839 361.8048,131.2839 C360.5048,131.2839 359.3818,131.5039 358.4378,131.9449 C357.4938,132.3859 356.6758,133.0459 355.9838,133.9269 C355.2918,134.8079 354.7038,135.9099 354.2218,137.2309 C353.7388,138.5529 353.3088,140.0949 352.9318,141.8579 L349.0298,141.2909 L350.7918,127.3189 C351.8828,127.4869 353.0788,127.6129 354.3788,127.6969 C355.6798,127.7809 356.7078,127.8229 357.4628,127.8229 L382.3208,127.8229 C383.2438,127.8229 384.3768,127.7809 385.7198,127.6969 C387.0618,127.6129 388.2788,127.4869 389.3698,127.3189 L389.3698,141.1019 L385.7198,141.4159 C385.5098,138.1019 384.8068,135.6269 383.6108,133.9899 C382.4158,132.3539 380.3488,131.5359 377.4128,131.5359 C375.6088,131.5359 374.7058,132.0809 374.7058,133.1719 L374.7058,161.6179 C374.7058,165.1419 376.9298,166.9039 381.3768,166.9039 L381.3768,169.5469 L357.8408,169.5469 Z" id="Fill-21" fill="#000000"></path>
            <path d="M393.146,169.5469 L393.146,166.9039 C397.048,166.9039 398.998,165.6239 398.998,163.0649 L398.998,135.5639 C398.998,132.2489 396.964,130.5919 392.894,130.5919 L392.894,127.8229 L414.983,127.8229 L414.983,130.5919 C411.249,130.5919 409.382,132.2489 409.382,135.5639 L409.382,163.0649 C409.382,165.6239 411.354,166.9039 415.298,166.9039 L415.298,169.5469 L393.146,169.5469 Z" id="Fill-23" fill="#000000"></path>
            <path d="M445.3174,141.4161 C444.9814,139.7381 444.5624,138.2071 444.0574,136.8221 C443.5544,135.4371 442.9354,134.2421 442.2024,133.2351 C441.4674,132.2281 440.6284,131.4521 439.6834,130.9071 C438.7404,130.3611 437.6804,130.0881 436.5054,130.0881 C434.0734,130.0881 432.1844,130.5811 430.8414,131.5671 C429.5004,132.5531 428.8294,133.8431 428.8294,135.4371 C428.8294,136.5711 429.0584,137.4941 429.5214,138.2071 C429.9824,138.9201 430.6544,139.5601 431.5354,140.1261 C432.4164,140.6931 433.4964,141.2171 434.7764,141.7001 C436.0544,142.1821 437.4924,142.7381 439.0874,143.3671 C440.8904,144.0811 442.5474,144.7941 444.0574,145.5071 C445.5694,146.2201 446.8594,147.0801 447.9284,148.0871 C448.9984,149.0941 449.8274,150.3111 450.4144,151.7371 C451.0024,153.1641 451.2964,154.9681 451.2964,157.1501 C451.2964,159.2471 450.9494,161.1141 450.2564,162.7511 C449.5654,164.3871 448.5794,165.7821 447.2984,166.9361 C446.0194,168.0891 444.4884,168.9701 442.7054,169.5791 C440.9214,170.1871 438.9614,170.4911 436.8214,170.4911 C435.2684,170.4911 433.7684,170.3021 432.3214,169.9251 C430.8744,169.5471 429.6054,168.8761 428.5134,167.9111 C427.6744,168.4981 426.8034,169.0231 425.9014,169.4841 C425.0004,169.9461 424.0674,170.3231 423.1024,170.6171 C422.5984,169.1491 422.2424,167.6701 422.0324,166.1801 C421.8214,164.6911 421.7164,163.1491 421.7164,161.5551 C421.7164,160.4641 421.7494,159.3941 421.8124,158.3451 C421.8754,157.2961 421.9904,156.2271 422.1584,155.1361 L426.2484,155.1361 C426.2484,156.5201 426.4264,157.9261 426.7834,159.3521 C427.1394,160.7791 427.7164,162.0901 428.5134,163.2851 C429.3104,164.4811 430.3484,165.4571 431.6294,166.2121 C432.9094,166.9671 434.4514,167.3451 436.2544,167.3451 C437.8904,167.3451 439.2644,167.1661 440.3774,166.8101 C441.4894,166.4531 442.3904,165.9601 443.0834,165.3311 C443.7754,164.7011 444.2794,163.9781 444.5924,163.1601 C444.9084,162.3411 445.0654,161.4711 445.0654,160.5481 C445.0654,159.0791 444.6884,157.8521 443.9314,156.8661 C443.1764,155.8801 441.9404,155.0941 440.2184,154.5061 C437.6604,153.6251 435.3104,152.7551 433.1714,151.8951 C431.0314,151.0351 429.1744,150.0071 427.6004,148.8111 C426.0284,147.6151 424.8004,146.1991 423.9204,144.5621 C423.0394,142.9271 422.5984,140.9131 422.5984,138.5201 C422.5984,136.7171 422.9434,135.0921 423.6374,133.6441 C424.3294,132.1971 425.2624,130.9701 426.4374,129.9631 C427.6124,128.9561 428.9864,128.1891 430.5584,127.6661 C432.1324,127.1411 433.7994,126.8791 435.5624,126.8791 C437.1154,126.8791 438.6044,127.1621 440.0314,127.7281 C441.4574,128.2951 442.6534,129.2491 443.6184,130.5921 C444.0794,129.7531 444.7514,129.0611 445.6314,128.5151 C446.5124,127.9701 447.3934,127.5711 448.2754,127.3191 C448.9044,129.3751 449.2924,131.6721 449.4394,134.2111 C449.5864,136.7491 449.6594,139.1511 449.6594,141.4161 L445.3174,141.4161 Z" id="Fill-25" fill="#000000"></path>
            <path d="M500.6348,148.4649 C500.6348,152.0309 500.0688,155.1779 498.9358,157.9049 C497.8028,160.6319 496.2398,162.9289 494.2468,164.7959 C492.2538,166.6629 489.9058,168.0789 487.1988,169.0439 C484.4928,170.0089 481.5448,170.4909 478.3578,170.4909 C475.3358,170.4909 472.5038,170.0819 469.8618,169.2639 C467.2168,168.4459 464.9098,167.1659 462.9388,165.4249 C460.9658,163.6839 459.4138,161.4499 458.2808,158.7229 C457.1488,155.9959 456.5818,152.7439 456.5818,148.9679 C456.5818,145.1509 457.1268,141.8669 458.2178,139.1189 C459.3088,136.3709 460.8298,134.1069 462.7808,132.3229 C464.7328,130.5399 467.0388,129.2279 469.7028,128.3889 C472.3668,127.5499 475.2518,127.1309 478.3578,127.1309 C481.4188,127.1309 484.3038,127.5819 487.0098,128.4849 C489.7158,129.3859 492.0758,130.7279 494.0898,132.5109 C496.1048,134.2939 497.6978,136.5179 498.8728,139.1819 C500.0468,141.8459 500.6348,144.9419 500.6348,148.4649 M478.8608,167.3449 C481.0838,167.3449 482.9088,166.8729 484.3348,165.9289 C485.7618,164.9859 486.8838,163.6839 487.7018,162.0279 C488.5198,160.3699 489.0868,158.4189 489.4018,156.1739 C489.7158,153.9289 489.8728,151.5279 489.8728,148.9679 C489.8728,146.5769 489.7158,144.2479 489.4018,141.9839 C489.0868,139.7169 488.4988,137.7029 487.6388,135.9419 C486.7798,134.1789 485.5728,132.7629 484.0218,131.6939 C482.4678,130.6229 480.4328,130.0879 477.9158,130.0879 C475.6098,130.0879 473.7618,130.5919 472.3778,131.5989 C470.9928,132.6069 469.9338,133.9589 469.1998,135.6579 C468.4658,137.3579 467.9838,139.3079 467.7518,141.5109 C467.5228,143.7129 467.4058,146.0309 467.4058,148.4649 C467.4058,151.1089 467.5738,153.5829 467.9098,155.8909 C468.2448,158.1979 468.8428,160.2019 469.7028,161.9019 C470.5638,163.5999 471.7278,164.9319 473.1968,165.8969 C474.6648,166.8619 476.5528,167.3449 478.8608,167.3449" id="Fill-27" fill="#000000"></path>
            <path d="M522.7871,162.1211 C522.7871,163.1281 522.8711,163.9041 523.0391,164.4501 C523.2071,164.9951 523.5001,165.4151 523.9201,165.7081 C524.3391,166.0021 524.8741,166.1801 525.5251,166.2431 C526.1751,166.3061 526.9831,166.3381 527.9481,166.3381 C532.0161,166.3381 535.0691,164.9221 537.1041,162.0901 C539.1391,159.2581 540.1561,154.8001 540.1561,148.7171 C540.1561,142.7171 539.1501,138.2691 537.1361,135.3751 C535.1221,132.4801 531.7231,131.0321 526.9411,131.0321 C526.1001,131.0321 525.4091,131.0631 524.8641,131.1271 C524.3181,131.1891 523.8881,131.3371 523.5741,131.5671 C523.2591,131.7981 523.0491,132.1431 522.9441,132.6061 C522.8391,133.0671 522.7871,133.6761 522.7871,134.4311 L522.7871,162.1211 Z M506.5501,169.5471 L506.5501,166.9041 C507.7661,166.9041 508.7641,166.8411 509.5401,166.7151 C510.3161,166.5891 510.9141,166.3381 511.3331,165.9601 C511.7531,165.5831 512.0361,165.0481 512.1831,164.3551 C512.3301,163.6631 512.4031,162.7511 512.4031,161.6181 L512.4031,136.0041 C512.4031,134.5781 512.2981,133.5391 512.0881,132.8891 C511.8791,132.2391 511.5431,131.7881 511.0821,131.5361 C510.6201,131.2841 510.0011,131.1161 509.2241,131.0321 C508.4491,130.9491 507.4941,130.7811 506.3621,130.5291 L506.3621,127.7601 C507.4101,127.8861 508.3961,127.9701 509.3191,128.0121 C510.2421,128.0541 511.1851,128.0751 512.1511,128.0751 C513.4521,128.0751 514.6371,128.0541 515.7071,128.0121 C516.7771,127.9701 517.9411,127.9171 519.2001,127.8531 C520.4591,127.7911 521.9161,127.7391 523.5741,127.6971 C525.2311,127.6551 527.3181,127.6341 529.8351,127.6341 C533.1081,127.6341 536.0131,128.0211 538.5521,128.7981 C541.0901,129.5751 543.2301,130.8021 544.9711,132.4801 C546.7121,134.1581 548.0341,136.3401 548.9351,139.0251 C549.8381,141.7101 550.2891,144.9411 550.2891,148.7171 C550.2891,152.3251 549.9011,155.4401 549.1241,158.0611 C548.3481,160.6841 547.0991,162.8451 545.3801,164.5441 C543.6601,166.2431 541.4151,167.5021 538.6461,168.3201 C535.8771,169.1381 532.4791,169.5471 528.4511,169.5471 L506.5501,169.5471 Z" id="Fill-29" fill="#000000"></path>
            <path d="M556.582,169.5469 L556.582,166.9039 C560.484,166.9039 562.435,165.6239 562.435,163.0649 L562.435,135.5639 C562.435,132.2489 560.4,130.5919 556.33,130.5919 L556.33,127.8229 L578.419,127.8229 L578.419,130.5919 C574.685,130.5919 572.818,132.2489 572.818,135.5639 L572.818,163.0649 C572.818,165.6239 574.79,166.9039 578.734,166.9039 L578.734,169.5469 L556.582,169.5469 Z" id="Fill-31" fill="#000000"></path>
            <path d="M591.9502,169.5469 L591.9502,166.9039 C596.1462,166.9039 598.2432,166.0859 598.2432,164.4499 L598.2432,152.5549 L587.9852,135.5639 C585.9712,132.2489 583.7062,130.5919 581.1892,130.5919 L581.1892,127.8229 L602.1452,127.8229 L602.1452,130.5919 C599.1662,130.5919 597.6772,131.1579 597.6772,132.2909 C597.6772,132.7109 598.0122,133.4449 598.6832,134.4939 L606.9282,148.1509 L614.6062,134.5569 C614.8162,133.9269 614.9202,133.0879 614.9202,132.0389 C614.9202,131.0739 613.2842,130.5919 610.0122,130.5919 L610.0122,127.8229 L625.1782,127.8229 L625.1782,130.5919 C622.9132,130.5919 621.2562,131.2839 620.2072,132.6689 L608.7532,152.3039 L608.7532,164.7009 C608.7532,166.1699 610.7662,166.9039 614.7952,166.9039 L614.7952,169.5469 L591.9502,169.5469 Z" id="Fill-33" fill="#000000"></path>
            <path d="M667.3428,148.4649 C667.3428,152.0309 666.7778,155.1779 665.6438,157.9049 C664.5108,160.6319 662.9488,162.9289 660.9558,164.7959 C658.9628,166.6629 656.6138,168.0789 653.9068,169.0439 C651.2008,170.0089 648.2538,170.4909 645.0658,170.4909 C642.0438,170.4909 639.2118,170.0819 636.5698,169.2639 C633.9258,168.4459 631.6188,167.1659 629.6478,165.4249 C627.6748,163.6839 626.1218,161.4499 624.9898,158.7229 C623.8578,155.9959 623.2898,152.7439 623.2898,148.9679 C623.2898,145.1509 623.8358,141.8669 624.9268,139.1189 C626.0178,136.3709 627.5378,134.1069 629.4888,132.3229 C631.4408,130.5399 633.7478,129.2279 636.4118,128.3889 C639.0758,127.5499 641.9598,127.1309 645.0658,127.1309 C648.1278,127.1309 651.0118,127.5819 653.7178,128.4849 C656.4248,129.3859 658.7838,130.7279 660.7978,132.5109 C662.8128,134.2939 664.4058,136.5179 665.5808,139.1819 C666.7558,141.8459 667.3428,144.9419 667.3428,148.4649 M645.5698,167.3449 C647.7918,167.3449 649.6168,166.8729 651.0438,165.9289 C652.4698,164.9859 653.5928,163.6839 654.4108,162.0279 C655.2298,160.3699 655.7948,158.4189 656.1108,156.1739 C656.4248,153.9289 656.5818,151.5279 656.5818,148.9679 C656.5818,146.5769 656.4248,144.2479 656.1108,141.9839 C655.7948,139.7169 655.2078,137.7029 654.3478,135.9419 C653.4888,134.1789 652.2808,132.7629 650.7298,131.6939 C649.1768,130.6229 647.1418,130.0879 644.6248,130.0879 C642.3178,130.0879 640.4708,130.5919 639.0868,131.5989 C637.7018,132.6069 636.6428,133.9589 635.9078,135.6579 C635.1738,137.3579 634.6928,139.3079 634.4608,141.5109 C634.2308,143.7129 634.1148,146.0309 634.1148,148.4649 C634.1148,151.1089 634.2828,153.5829 634.6178,155.8909 C634.9538,158.1979 635.5518,160.2019 636.4118,161.9019 C637.2728,163.5999 638.4358,164.9319 639.9058,165.8969 C641.3728,166.8619 643.2608,167.3449 645.5698,167.3449" id="Fill-35" fill="#000000"></path>
            <path d="M678.3574,169.5469 L678.3574,166.9039 C682.7194,166.9039 684.9024,165.1419 684.9024,161.6179 L684.9024,133.1719 C684.9024,131.9139 684.0414,131.2839 682.3214,131.2839 C681.0214,131.2839 679.8984,131.5039 678.9544,131.9449 C678.0094,132.3859 677.1924,133.0459 676.5004,133.9269 C675.8074,134.8079 675.2194,135.9099 674.7384,137.2309 C674.2544,138.5529 673.8254,140.0949 673.4484,141.8579 L669.5454,141.2909 L671.3074,127.3189 C672.3994,127.4869 673.5944,127.6129 674.8954,127.6969 C676.1964,127.7809 677.2234,127.8229 677.9794,127.8229 L702.8364,127.8229 C703.7594,127.8229 704.8924,127.7809 706.2364,127.6969 C707.5784,127.6129 708.7944,127.4869 709.8854,127.3189 L709.8854,141.1019 L706.2364,141.4159 C706.0264,138.1019 705.3234,135.6269 704.1274,133.9899 C702.9314,132.3539 700.8654,131.5359 697.9284,131.5359 C696.1254,131.5359 695.2214,132.0809 695.2214,133.1719 L695.2214,161.6179 C695.2214,165.1419 697.4464,166.9039 701.8924,166.9039 L701.8924,169.5469 L678.3574,169.5469 Z" id="Fill-37" fill="#000000"></path>
            <g id="Group-41" transform="translate(713.000000, 127.674000)">
                <mask id="mask-2" fill="white">
                    <use xlink:href="#path-1"></use>
                </mask>
                <g id="Clip-40"></g>
                <path d="M0.6621,41.8729 L0.6621,39.2299 C4.5641,39.2299 6.5151,37.9499 6.5151,35.3909 L6.5151,7.8899 C6.5151,4.5749 4.4801,2.9179 0.4101,2.9179 L0.4101,0.1489 L22.4991,0.1489 L22.4991,2.9179 C18.7651,2.9179 16.8981,4.5749 16.8981,7.8899 L16.8981,35.3909 C16.8981,37.9499 18.8701,39.2299 22.8141,39.2299 L22.8141,41.8729 L0.6621,41.8729 Z" id="Fill-39" fill="#000000" mask="url(#mask-2)"></path>
            </g>
            <g id="Group-44" transform="translate(204.000000, 0.674000)">
                <mask id="mask-4" fill="white">
                    <use xlink:href="#path-3"></use>
                </mask>
                <g id="Clip-43"></g>
                <path d="M67.3472,2.5038 C67.6022,1.3018 66.8342,0.3258 65.6322,0.3258 L51.1132,0.3258 C49.9112,0.3258 48.7282,1.3018 48.4732,2.5038 L0.3672,228.8218 C0.1122,230.0248 0.8802,230.9998 2.0822,230.9998 L16.6012,230.9998 C17.8032,230.9998 18.9862,230.0248 19.2412,228.8218 L67.3472,2.5038 Z" id="Fill-42" fill="#FF2828" mask="url(#mask-4)"></path>
            </g>
            <path d="M70.2192,171.3194 L70.2192,164.3144 C81.1162,164.3144 86.5642,160.9224 86.5642,154.1384 L86.5642,120.4484 C85.4522,119.8914 83.9232,119.4194 81.9772,119.0304 C80.0322,118.6404 77.7242,118.4464 75.0562,118.4464 L55.0412,118.4464 C50.9272,118.4464 47.3132,119.1134 44.1992,120.4484 L44.1992,154.1384 C44.1992,160.9224 49.2032,164.3144 59.2112,164.3144 L59.2112,171.3194 L0.0002,171.3194 L0.0002,164.3144 C11.2302,164.3144 16.8462,160.9224 16.8462,154.1384 L16.8462,81.2524 C16.8462,72.4674 11.2302,68.0754 0.0002,68.0754 L0.0002,60.7374 L59.2112,60.7374 L59.2112,68.0754 C49.2032,68.0754 44.1992,72.4674 44.1992,81.2524 L44.1992,108.4394 C45.8672,108.9954 47.5352,109.3834 49.2032,109.6064 C50.8712,109.8294 52.8172,109.9404 55.0412,109.9404 L75.0562,109.9404 C80.8382,109.9404 84.6742,109.4954 86.5642,108.6064 L86.5642,81.2524 C86.5642,72.4674 81.1162,68.0754 70.2192,68.0754 L70.2192,60.7374 L129.0962,60.7374 L129.0962,68.0754 C118.9772,68.0754 113.9182,72.4674 113.9182,81.2524 L113.9182,154.1384 C113.9182,160.9224 118.9772,164.3144 129.0962,164.3144 L129.0962,171.3194 L70.2192,171.3194 Z" id="Fill-45" fill="#000000"></path>
            <path d="M145.6079,171.3194 L145.6079,164.3144 C155.9489,164.3144 161.1189,160.9224 161.1189,154.1384 L161.1189,81.2524 C161.1189,72.4674 155.7269,68.0754 144.9409,68.0754 L144.9409,60.7374 L203.4839,60.7374 L203.4839,68.0754 C193.5879,68.0754 188.6399,72.4674 188.6399,81.2524 L188.6399,154.1384 C188.6399,160.9224 193.8659,164.3144 204.3179,164.3144 L204.3179,171.3194 L145.6079,171.3194 Z" id="Fill-47" fill="#000000"></path>
        </g>
    </g>
</svg>