<?xml version="1.0" encoding="UTF-8"?>
<svg width="400px" height="400px" viewBox="0 0 400 400" version="1.1" xmlns="http://www.w3.org/2000/svg" xmlns:xlink="http://www.w3.org/1999/xlink">
    <!-- Generator: Sketch 61.2 (89653) - https://sketch.com -->
    <title>ic_fabicon</title>
    <desc>Created with Sketch.</desc>
    <g id="Page-1" stroke="none" stroke-width="1" fill="none" fill-rule="evenodd">
        <g id="ic_fabicon">
            <rect id="Rectangle" fill="#FFFFFF" x="0" y="0" width="400" height="400" rx="200"></rect>
            <g id="Group" transform="translate(46.000000, 73.000000)">
                <path d="M298.481706,2.39580005 C298.762206,1.07360002 297.917406,-1.56319405e-14 296.595206,-1.56319405e-14 L280.624306,-1.56319405e-14 C279.302106,-1.56319405e-14 278.000806,1.07360002 277.720306,2.39580005 L224.803705,251.345605 C224.523205,252.668905 225.368005,253.741405 226.690205,253.741405 L242.661105,253.741405 C243.983305,253.741405 245.284605,252.668905 245.565105,251.345605 L298.481706,2.39580005 Z" id="Fill-42" fill="#FF2828"></path>
                <path d="M77.2409017,187.351564 L77.2409017,179.646064 C89.2276019,179.646064 95.2204021,175.914864 95.2204021,168.452464 L95.2204021,131.393463 C93.997202,130.780763 92.315302,130.261563 90.174702,129.833663 C88.0352019,129.404663 85.4964019,129.191263 82.5616018,129.191263 L60.5451013,129.191263 C56.0197012,129.191263 52.0443011,129.924963 48.6189011,131.393463 L48.6189011,168.452464 C48.6189011,175.914864 54.1233012,179.646064 65.1321014,179.646064 L65.1321014,187.351564 L0,187.351564 L0,179.646064 C12.3530003,179.646064 18.5306004,175.914864 18.5306004,168.452464 L18.5306004,88.2778619 C18.5306004,78.6143617 12.3530003,73.7831616 0,73.7831616 L0,65.7113614 L65.1321014,65.7113614 L65.1321014,73.7831616 C54.1233012,73.7831616 48.6189011,78.6143617 48.6189011,88.2778619 L48.6189011,118.183563 C50.4537011,118.795163 52.2885011,119.221963 54.1233012,119.467263 C55.9581012,119.712563 58.0987013,119.834663 60.5451013,119.834663 L82.5616018,119.834663 C88.9218019,119.834663 93.141402,119.345163 95.2204021,118.367263 L95.2204021,88.2778619 C95.2204021,78.6143617 89.2276019,73.7831616 77.2409017,73.7831616 L77.2409017,65.7113614 L142.005603,65.7113614 L142.005603,73.7831616 C130.874703,73.7831616 125.309803,78.6143617 125.309803,88.2778619 L125.309803,168.452464 C125.309803,175.914864 130.874703,179.646064 142.005603,179.646064 L142.005603,187.351564 L77.2409017,187.351564 Z" id="Fill-45" fill="#000000"></path>
                <path d="M160.168473,187.351564 L160.168473,179.646064 C171.543574,179.646064 177.230574,175.914864 177.230574,168.452464 L177.230574,88.2778619 C177.230574,78.6143617 171.299374,73.7831616 159.434773,73.7831616 L159.434773,65.7113614 L223.832075,65.7113614 L223.832075,73.7831616 C212.946475,73.7831616 207.503674,78.6143617 207.503674,88.2778619 L207.503674,168.452464 C207.503674,175.914864 213.252275,179.646064 224.749475,179.646064 L224.749475,187.351564 L160.168473,187.351564 Z" id="Fill-47" fill="#000000"></path>
            </g>
        </g>
    </g>
</svg>